<svg width="130" height="40" viewBox="0 0 130 40" fill="none" xmlns="http://www.w3.org/2000/svg">
<path d="M37.8448 11.0253C37.8448 8.95911 36.2801 7.40947 34.4546 7.40947C32.3683 7.40947 30.8036 8.95911 30.8036 11.0253C30.8036 13.0915 32.3683 14.6411 34.4546 14.6411C36.2801 14.6411 37.8448 13.0915 37.8448 11.0253ZM28.4403 11.0253C28.4403 7.66775 31.0644 5.32715 33.933 5.32715C35.4977 5.32715 36.8016 6.10197 37.8448 7.1512V5.58542H40.1918V16.2069C40.1918 19.5644 38.1055 21.8889 34.4546 21.8889C31.8468 21.8889 30.0213 20.5975 28.9619 18.7896L31.3252 17.7565C31.8468 19.0479 32.8899 19.5644 34.4546 19.5644C36.5409 19.5644 37.8448 18.2731 37.8448 16.4652V14.8994C36.8016 15.9325 35.4977 16.7234 33.933 16.7234C31.3252 16.7234 28.4403 14.6411 28.4403 11.0253Z" fill="#085856"/>
<path d="M43.8434 9.9922H50.64C50.1185 8.18429 49.0753 7.40947 47.2498 7.40947C45.6852 7.40947 44.3649 8.44256 43.8434 9.9922ZM41.4963 11.0253C41.4963 7.92602 44.1042 5.32715 47.2498 5.32715C50.64 5.32715 52.9871 7.66775 52.9871 11.0253V11.8001H43.8434C44.1042 13.608 45.4244 14.6411 47.2498 14.6411C48.8145 14.6411 50.1185 13.8663 50.64 12.5749L52.4655 13.8663C51.4224 15.6742 49.8577 16.7234 47.2498 16.7234C43.8434 16.7234 41.4963 14.3828 41.4963 11.0253Z" fill="#085856"/>
<path d="M53.5083 5.58503H55.3338V3.0023L57.6808 1.71094V5.58503H60.0279V7.66735H57.6808V12.058C57.6808 13.8659 57.9416 14.3824 60.0279 14.3824V16.4648H59.7671C56.3769 16.4648 55.3338 15.4155 55.3338 12.058V7.66735H53.5083V5.58503Z" fill="#085856"/>
<path d="M39.4109 29.6532C39.4109 27.0705 37.3246 24.9882 34.9776 24.9882C32.3697 24.9882 30.5443 27.0705 30.5443 29.6532C30.5443 31.9777 32.3697 34.0439 34.9776 34.0439C37.3246 34.0439 39.4109 31.9777 39.4109 29.6532ZM30.5443 32.7525V40.0003H29.2404V24.2134H30.5443V26.2957C31.3266 24.7299 33.4129 23.9551 34.9776 23.9551C38.3677 23.9551 40.7148 26.5539 40.7148 29.6532C40.7148 32.7525 38.3677 35.3514 34.9776 35.3514C33.1521 35.3514 31.3266 34.3021 30.5443 32.7525Z" fill="#085856"/>
<path d="M42.8016 24.2129H44.1055V26.2952C44.9041 24.9877 45.9473 24.2129 47.7727 24.2129H48.8159V25.246H47.7727C45.4257 25.246 44.1055 26.8118 44.1055 29.3945V35.0765H42.8016V24.2129Z" fill="#085856"/>
<path d="M59.7675 29.6532C59.7675 27.0705 57.6812 24.9882 55.3342 24.9882C52.7264 24.9882 50.9009 27.0705 50.9009 29.6532C50.9009 31.9777 52.7264 34.0439 55.3342 34.0439C57.6812 34.0439 59.7675 31.9777 59.7675 29.6532ZM49.597 29.6532C49.597 26.2957 52.2048 23.9551 55.3342 23.9551C58.4636 23.9551 61.0877 26.2957 61.0877 29.6532C61.0877 32.7525 58.4636 35.3514 55.3342 35.3514C52.2048 35.3514 49.597 32.7525 49.597 29.6532Z" fill="#085856"/>
<path d="M73.3457 29.6532C73.3457 27.0705 71.2594 24.9882 68.9124 24.9882C66.3046 24.9882 64.2183 27.0705 64.2183 29.6532C64.2183 31.9777 66.3046 34.0439 68.9124 34.0439C71.2594 34.0439 73.3457 31.9777 73.3457 29.6532ZM64.4791 32.7525V40.0003H63.1752V24.2134H64.4791V26.2957C65.2614 24.7299 67.0869 23.9551 68.9124 23.9551C72.0418 23.9551 74.6496 26.5539 74.6496 29.6532C74.6496 32.7525 72.0418 35.3514 68.9124 35.3514C67.0869 35.3514 65.2614 34.3021 64.4791 32.7525Z" fill="#085856"/>
<path d="M77.7934 28.8784H86.3992C86.3992 26.5539 84.5738 24.9882 82.2267 24.9882C79.8797 24.9882 78.0542 26.5539 77.7934 28.8784ZM76.4732 29.6532C76.4732 26.2957 78.8365 23.9551 82.2267 23.9551C85.3561 23.9551 87.7031 26.2957 87.7031 29.3949V29.9115H77.7934C77.7934 32.4942 79.6189 34.0439 82.2267 34.0439C84.313 34.0439 85.6169 33.0108 86.3992 31.4611L87.4424 31.9777C86.3992 34.0439 84.8345 35.3514 82.2267 35.3514C78.8365 35.3514 76.4732 32.7525 76.4732 29.6532Z" fill="#085856"/>
<path d="M90.0513 24.2129H91.3552V26.2952C91.8768 24.9877 93.197 24.2129 95.0225 24.2129H95.8048V25.246H95.0225C92.6755 25.246 91.3552 26.8118 91.3552 29.3945V35.0765H90.0513V24.2129Z" fill="#085856"/>
<path d="M97.1078 24.213H99.1941V21.6303L100.498 20.8555V24.213H103.106V25.2461H100.498V30.9442C100.498 33.527 100.759 33.7852 103.106 33.7852V35.0766C99.9765 35.0766 99.1941 34.3018 99.1941 30.9442V25.2461H97.1078V24.213Z" fill="#085856"/>
<path d="M105.194 24.2133H106.498V35.0769H105.194V24.2133ZM105.194 19.0479H106.498V22.1471H105.194V19.0479Z" fill="#085856"/>
<path d="M110.165 28.8784H118.771C118.51 26.5539 116.945 24.9882 114.598 24.9882C112.251 24.9882 110.426 26.5539 110.165 28.8784ZM108.861 29.6532C108.861 26.2957 111.208 23.9551 114.598 23.9551C117.727 23.9551 120.074 26.2957 120.074 29.3949V29.9115H109.904C110.165 32.4942 111.99 34.0439 114.598 34.0439C116.684 34.0439 117.988 33.0108 118.771 31.4611L119.814 31.9777C118.771 34.0439 117.206 35.3514 114.598 35.3514C110.947 35.3514 108.861 32.7525 108.861 29.6532Z" fill="#085856"/>
<path d="M121.378 33.269L122.421 32.4942C123.203 33.5273 124.524 34.0439 125.827 34.0439C127.914 34.0439 128.696 33.269 128.696 31.9777C128.696 30.6863 127.131 30.428 125.567 29.9115C123.986 29.3949 121.899 28.8784 121.899 26.8122C121.899 25.2464 123.464 23.9551 125.827 23.9551C127.392 23.9551 128.957 24.4716 129.739 25.5047L128.957 26.2957C128.175 25.5047 127.131 24.9882 125.827 24.9882C124.263 24.9882 123.203 25.7791 123.203 26.8122C123.203 28.1036 124.784 28.6201 126.349 28.8784C128.175 29.3949 130 29.9115 130 31.9777C130 33.5273 128.696 35.3514 125.827 35.3514C123.986 35.3514 122.421 34.3021 121.378 33.269Z" fill="#085856"/>
<path d="M9.64894 20.8558C6.51955 20.8558 3.91173 18.2731 3.91173 14.8994C3.91173 11.8001 6.51955 9.21738 9.64894 9.21738C13.0391 9.21738 15.6632 11.8001 15.6632 14.8994C15.6632 18.2731 13.0391 20.8558 9.64894 20.8558ZM9.64894 5.32715C4.4333 5.32715 0 9.73393 0 14.8994C0 20.3392 4.4333 24.7299 9.64894 24.7299C15.1417 24.7299 19.575 20.3392 19.575 14.8994C19.575 9.73393 15.1417 5.32715 9.64894 5.32715Z" fill="#085856"/>
<path d="M19.575 25.5039C19.575 30.6855 15.1417 35.0761 9.64894 35.0761C4.4333 35.0761 0 30.6855 0 25.5039H3.91173C3.91173 28.6193 6.51955 31.202 9.64894 31.202C13.0391 31.202 15.6632 28.6193 15.6632 25.5039H19.575Z" fill="#085856"/>
<path d="M16.3795 0H22.6383V6.19854H16.3795V0Z" fill="#085856"/>
</svg>
